[Header]
FileType HTR
DataType HTRS
FileVersion 1
NumSegments 64
NumFrames 3
DataFrameRate 24
EulerRotationOrder ZYX
CalibrationUnits mm
RotationUnits Degrees
GlobalAxisofGravity Y
BoneLengthAxis Y
ScaleFactor 1.0
[SegmentNames&Hierarchy]
Hips	GLOBAL
Spine	Hips
Spine1	Spine
Spine2	Spine1
Neck	Spine2
Head	Neck
LeftEye	Head
RightEye	Head
LeftShoulder	Spine2
LeftArm	LeftShoulder
LeftForeArm	LeftArm
LeftHand	LeftForeArm
LeftHandThumb1	LeftHand
LeftHandThumb2	LeftHandThumb1
LeftHandThumb3	LeftHandThumb2
LeftHandThumb4	LeftHandThumb3
LeftHandIndex1	LeftHand
LeftHandIndex2	LeftHandIndex1
LeftHandIndex3	LeftHandIndex2
LeftHandIndex4	LeftHandIndex3
LeftHandMiddle1	LeftHand
LeftHandMiddle2	LeftHandMiddle1
LeftHandMiddle3	LeftHandMiddle2
LeftHandMiddle4	LeftHandMiddle3
LeftHandRing1	LeftHand
LeftHandRing2	LeftHandRing1
LeftHandRing3	LeftHandRing2
LeftHandRing4	LeftHandRing3
LeftHandPinky1	LeftHand
LeftHandPinky2	LeftHandPinky1
LeftHandPinky3	LeftHandPinky2
LeftHandPinky4	LeftHandPinky3
RightShoulder	Spine2
RightArm	RightShoulder
RightForeArm	RightArm
RightHand	RightForeArm
RightHandPinky1	RightHand
RightHandPinky2	RightHandPinky1
RightHandPinky3	RightHandPinky2
RightHandPinky4	RightHandPinky3
RightHandRing1	RightHand
RightHandRing2	RightHandRing1
RightHandRing3	RightHandRing2
RightHandRing4	RightHandRing3
RightHandMiddle1	RightHand
RightHandMiddle2	RightHandMiddle1
RightHandMiddle3	RightHandMiddle2
RightHandMiddle4	RightHandMiddle3
RightHandIndex1	RightHand
RightHandIndex2	RightHandIndex1
RightHandIndex3	RightHandIndex2
RightHandIndex4	RightHandIndex3
RightHandThumb1	RightHand
RightHandThumb2	RightHandThumb1
RightHandThumb3	RightHandThumb2
RightHandThumb4	RightHandThumb3
LeftUpLeg	Hips
LeftLeg	LeftUpLeg
LeftFoot	LeftLeg
LeftToeBase	LeftFoot
RightUpLeg	Hips
RightLeg	RightUpLeg
RightFoot	RightLeg
RightToeBase	RightFoot
[BasePosition]
Hips	0	0	0	0	0	0	1
Spine	0	0	0	0	0	0	1
Spine1	0	0	0	0	0	0	1
Spine2	0	0	0	0	0	0	1
Neck	0	0	0	0	0	0	1
Head	0	0	0	0	0	0	1
LeftEye	0	0	0	0	0	0	1
RightEye	0	0	0	0	0	0	1
LeftShoulder	0	0	0	0	0	0	1
LeftArm	0	0	0	0	0	0	1
LeftForeArm	0	0	0	0	0	0	1
LeftHand	0	0	0	0	0	0	1
LeftHandThumb1	0	0	0	0	0	0	1
LeftHandThumb2	0	0	0	0	0	0	1
LeftHandThumb3	0	0	0	0	0	0	1
LeftHandThumb4	0	0	0	0	0	0	1
LeftHandIndex1	0	0	0	0	0	0	1
LeftHandIndex2	0	0	0	0	0	0	1
LeftHandIndex3	0	0	0	0	0	0	1
LeftHandIndex4	0	0	0	0	0	0	1
LeftHandMiddle1	0	0	0	0	0	0	1
LeftHandMiddle2	0	0	0	0	0	0	1
LeftHandMiddle3	0	0	0	0	0	0	1
LeftHandMiddle4	0	0	0	0	0	0	1
LeftHandRing1	0	0	0	0	0	0	1
LeftHandRing2	0	0	0	0	0	0	1
LeftHandRing3	0	0	0	0	0	0	1
LeftHandRing4	0	0	0	0	0	0	1
LeftHandPinky1	0	0	0	0	0	0	1
LeftHandPinky2	0	0	0	0	0	0	1
LeftHandPinky3	0	0	0	0	0	0	1
LeftHandPinky4	0	0	0	0	0	0	1
RightShoulder	0	0	0	0	0	0	1
RightArm	0	0	0	0	0	0	1
RightForeArm	0	0	0	0	0	0	1
RightHand	0	0	0	0	0	0	1
RightHandPinky1	0	0	0	0	0	0	1
RightHandPinky2	0	0	0	0	0	0	1
RightHandPinky3	0	0	0	0	0	0	1
RightHandPinky4	0	0	0	0	0	0	1
RightHandRing1	0	0	0	0	0	0	1
RightHandRing2	0	0	0	0	0	0	1
RightHandRing3	0	0	0	0	0	0	1
RightHandRing4	0	0	0	0	0	0	1
RightHandMiddle1	0	0	0	0	0	0	1
RightHandMiddle2	0	0	0	0	0	0	1
RightHandMiddle3	0	0	0	0	0	0	1
RightHandMiddle4	0	0	0	0	0	0	1
RightHandIndex1	0	0	0	0	0	0	1
RightHandIndex2	0	0	0	0	0	0	1
RightHandIndex3	0	0	0	0	0	0	1
RightHandIndex4	0	0	0	0	0	0	1
RightHandThumb1	0	0	0	0	0	0	1
RightHandThumb2	0	0	0	0	0	0	1
RightHandThumb3	0	0	0	0	0	0	1
RightHandThumb4	0	0	0	0	0	0	1
LeftUpLeg	0	0	0	0	0	0	1
LeftLeg	0	0	0	0	0	0	1
LeftFoot	0	0	0	0	0	0	1
LeftToeBase	0	0	0	0	0	0	1
RightUpLeg	0	0	0	0	0	0	1
RightLeg	0	0	0	0	0	0	1
RightFoot	0	0	0	0	0	0	1
RightToeBase	0	0	0	0	0	0	1
[Hips]
6	-422.7088013	978.9616699	24.98319244	62.96024323	-87.91423035	-61.25221252	1.0
7	-510.928833	968.4780884	30.23225594	42.41565704	-89.22756195	-40.99537659	1.0
8	-598.0473633	966.5585327	36.79538345	-57.57601547	-87.87567139	58.34362793	1.0
[Spine]
6	0	101.8159943	1.315000057	3.372290373	12.81536388	1.524819016	1.0
7	0	101.8159943	1.315000057	3.249042034	13.33318806	0.2539889812	1.0
8	0	101.8159943	1.315000057	3.365993977	13.43543148	-1.802127361	1.0
[Spine1]
6	0	100.8349991	-10.00800037	0.723678112	17.14397621	-1.647453308	1.0
7	0	100.8349991	-10.00800037	0.7681074142	17.31515121	-1.730907202	1.0
8	0	100.8349991	-10.00800037	0.9999950528	17.34348869	-1.920279026	1.0
[Spine2]
6	0	91	-13.73399925	0.4666807055	17.10346985	-2.024683714	1.0
7	0	91	-13.73399925	0.5108240843	17.27567673	-2.10429883	1.0
8	0	91	-13.73399925	0.741563201	17.30725861	-2.283500195	1.0
[Neck]
6	0	166.7169952	-25.16200066	3.385297537	4.848015308	0.2344587296	1.0
7	0	166.7169952	-25.16200066	3.062554836	4.73673296	0.4701376259	1.0
8	0	166.7169952	-25.16200066	2.898361206	4.6571064	0.553588748	1.0
[Head]
6	0	96.17900085	16.84999847	-15.64806652	35.78469467	-9.741772652	1.0
7	0	96.17900085	16.84999847	-15.17955112	35.65503311	-9.201682091	1.0
8	0	96.17900085	16.84999847	-15.020051	35.32316589	-8.870117188	1.0
[LeftEye]
6	30.6760006	64.09500122	92.83599854	0	0	0	1.0
7	30.6760006	64.09500122	92.83599854	0	0	0	1.0
8	30.6760006	64.09500122	92.83599854	0	0	0	1.0
[RightEye]
6	-30.6760006	64.09500122	92.83499908	0	0	0	1.0
7	-30.6760006	64.09500122	92.83499908	0	0	0	1.0
8	-30.6760006	64.09500122	92.83499908	0	0	0	1.0
[LeftShoulder]
6	45.70400238	109.4599991	-26.28000069	3.453342199	4.913437843	-12.40426636	1.0
7	45.70400238	109.4599991	-26.28000069	3.314820528	5.971046925	-11.84001446	1.0
8	45.70400238	109.4599991	-26.28000069	3.341840744	5.690296173	-11.64478779	1.0
[LeftArm]
6	105.923996	-5.24600029	-22.32099915	18.26086617	11.81691837	-62.40632629	1.0
7	105.923996	-5.24600029	-22.32099915	18.52891541	17.067276	-62.16588211	1.0
8	105.923996	-5.24600029	-22.32099915	16.65674782	19.44731712	-61.93118668	1.0
[LeftForeArm]
6	278.414978	-0.0009999999311	0	2.370815082e-07	-20.33811188	-0.0002085971646	1.0
7	278.414978	-0.0009999999311	0	9.088845218e-06	-21.72029305	-0.0002149792126	1.0
8	278.414978	-0.0009999999311	0	8.021552276e-07	-22.33661842	-0.0002071350609	1.0
[LeftHand]
6	283.2879944	0	0	38.24623871	-4.449225903	1.454875827	1.0
7	283.2879944	0	0	27.07393456	-0.4915795326	-0.9868495464	1.0
8	283.2879944	0	0	20.08296776	4.490322113	-5.98735714	1.0
[LeftHandThumb1]
6	24.6609993	-15.75	26.8239994	10.30731106	3.878396749	-1.290113449	1.0
7	24.6609993	-15.75	26.8239994	10.08760548	4.382565498	-0.6451101303	1.0
8	24.6609993	-15.75	26.8239994	9.721853256	4.903704643	0.1428857446	1.0
[LeftHandThumb2]
6	32.29800034	-18.64699936	18.64699936	2.343523026	13.19529057	12.57420063	1.0
7	32.29800034	-18.64699936	18.64699936	3.152594805	12.97183895	12.63658524	1.0
8	32.29800034	-18.64699936	18.64699936	3.804516792	12.58098698	12.64294624	1.0
[LeftHandThumb3]
6	26.52600098	-15.31499958	15.31499958	3.24774003	13.23862839	0.6852126718	1.0
7	26.52600098	-15.31499958	15.31499958	3.329826593	13.46458054	0.6259154081	1.0
8	26.52600098	-15.31499958	15.31499958	3.394884348	13.64287567	0.5789783597	1.0
[LeftHandThumb4]
6	19.54599953	-11.28499985	11.28499985	0	0	0	1.0
7	19.54599953	-11.28499985	11.28499985	0	0	0	1.0
8	19.54599953	-11.28499985	11.28499985	0	0	0	1.0
[LeftHandIndex1]
6	91.09299469	-5.170999527	22.60099792	0.05968723446	1.597362638	-6.38738203	1.0
7	91.09299469	-5.170999527	22.60099792	0.01967247576	1.85293448	-6.805677414	1.0
8	91.09299469	-5.170999527	22.60099792	0.0276490394	1.986039162	-6.558899403	1.0
[LeftHandIndex2]
6	36.76399994	0	0	-0.1515881717	1.599652648	-8.121230125	1.0
7	36.76399994	0	0	-0.1855112612	1.714088917	-9.293904305	1.0
8	36.76399994	0	0	-0.1983228028	1.755270958	-9.717662811	1.0
[LeftHandIndex3]
6	28.83100128	0	0	-0.08158411086	0.6337563992	-8.43967247	1.0
7	28.83100128	0	0	-0.111190021	0.8136149645	-10.25206852	1.0
8	28.83100128	0	0	-0.1219464466	0.8713431954	-10.83612061	1.0
[LeftHandIndex4]
6	23.92700005	0	0	0	0	0	1.0
7	23.92700005	0	0	0	0	0	1.0
8	23.92700005	0	0	0	0	0	1.0
[LeftHandMiddle1]
6	95.33399963	0	0	-1.772587776	6.86425972	-18.1179409	1.0
7	95.33399963	0	0	-1.807286024	7.01974535	-18.38538933	1.0
8	95.33399963	0	0	-1.751909256	7.007155895	-17.93412971	1.0
[LeftHandMiddle2]
6	36.98199844	0	0	-0.378030628	2.21938467	-14.39657497	1.0
7	36.98199844	0	0	-0.4403364062	2.356737375	-15.88499737	1.0
8	36.98199844	0	0	-0.4561671615	2.390190125	-16.25033569	1.0
[LeftHandMiddle3]
6	29.50900078	0	0	-0.07331496477	1.112257719	-8.436155319	1.0
7	29.50900078	0	0	-0.1044578999	1.281747103	-10.16738415	1.0
8	29.50900078	0	0	-0.1128650159	1.323083401	-10.59122276	1.0
[LeftHandMiddle4]
6	28.3390007	0	0	0	0	0	1.0
7	28.3390007	0	0	0	0	0	1.0
8	28.3390007	0	0	0	0	0	1.0
[LeftHandRing1]
6	91.04499817	-0.4390000105	-18.65100098	-3.34389782	13.54207325	-28.67771339	1.0
7	91.04499817	-0.4390000105	-18.65100098	-3.520426273	13.52375507	-30.01485443	1.0
8	91.04499817	-0.4390000105	-18.65100098	-3.528655291	13.45690632	-30.10063553	1.0
[LeftHandRing2]
6	31.54000092	0	0	-0.1878155619	2.03397584	-17.22670555	1.0
7	31.54000092	0	0	-0.2363708168	2.204134464	-19.01181602	1.0
8	31.54000092	0	0	-0.2497113794	2.247644901	-19.47085571	1.0
[LeftHandRing3]
6	29.37700081	0	0	0.02011478879	1.305580139	-13.22471142	1.0
7	29.37700081	0	0	-0.01213898975	1.517312169	-15.37596989	1.0
8	29.37700081	0	0	-0.02154177614	1.570666075	-15.92043591	1.0
[LeftHandRing4]
6	26.47500038	0	0	0	0	0	1.0
7	26.47500038	0	0	0	0	0	1.0
8	26.47500038	0	0	0	0	0	1.0
[LeftHandPinky1]
6	80.77799988	-4.887000084	-38.06099701	-5.305844784	16.32196045	-36.65228653	1.0
7	80.77799988	-4.887000084	-38.06099701	-5.653520107	16.41428185	-38.21248627	1.0
8	80.77799988	-4.887000084	-38.06099701	-5.683550835	16.39303398	-38.22928619	1.0
[LeftHandPinky2]
6	36	0	0	-0.6405344605	2.158485651	-24.39758301	1.0
7	36	0	0	-0.756921947	2.370633841	-26.8189888	1.0
8	36	0	0	-0.7856115699	2.419819832	-27.38933754	1.0
[LeftHandPinky3]
6	21.14200211	0	0	-0.1864497066	1.868776321	-10.24523544	1.0
7	21.14200211	0	0	-0.2537744939	2.098335981	-12.63190842	1.0
8	21.14200211	0	0	-0.2707645297	2.151237011	-13.18612385	1.0
[LeftHandPinky4]
6	19.75699997	0	0	0	0	0	1.0
7	19.75699997	0	0	0	0	0	1.0
8	19.75699997	0	0	0	0	0	1.0
[RightShoulder]
6	-45.70000076	109.4620056	-26.28000069	7.533419609	25.35151291	17.15563965	1.0
7	-45.70000076	109.4620056	-26.28000069	7.480006695	24.93780708	17.19454002	1.0
8	-45.70000076	109.4620056	-26.28000069	7.243375778	23.74949837	16.87812233	1.0
[RightArm]
6	-105.9280014	-5.248000145	-22.32099915	16.16788673	15.54205132	43.26926422	1.0
7	-105.9280014	-5.248000145	-22.32099915	14.40049362	16.938797	41.09249878	1.0
8	-105.9280014	-5.248000145	-22.32099915	10.57862377	16.31311798	42.73769379	1.0
[RightForeArm]
6	-278.414978	0	0	2.802705239e-06	21.58996582	-2.825993079e-06	1.0
7	-278.414978	0	0	2.916581025e-06	25.63508797	1.159599151e-06	1.0
8	-278.414978	0	0	1.347226203e-06	29.46399307	-3.78159325e-06	1.0
[RightHand]
6	-283.2879944	0	0.0009999999311	15.37203979	3.420107603	21.98198891	1.0
7	-283.2879944	0	0.0009999999311	18.00854301	8.231269836	18.7461586	1.0
8	-283.2879944	0	0.0009999999311	19.9679966	14.8546114	11.68998432	1.0
[RightHandPinky1]
6	-80.76699829	-4.885000229	-38.06000137	-6.971662998	-15.96164894	46.62158966	1.0
7	-80.76699829	-4.885000229	-38.06000137	-6.846581936	-15.43844318	46.87068176	1.0
8	-80.76699829	-4.885000229	-38.06000137	-6.816041946	-14.89554787	47.63542557	1.0
[RightHandPinky2]
6	-36	0	0.0009999999311	-0.9008127451	-2.60641098	29.60398674	1.0
7	-36	0	0.0009999999311	-0.8636655211	-2.54784894	28.90973663	1.0
8	-36	0	0.0009999999311	-0.8277773261	-2.48973012	28.22590065	1.0
[RightHandPinky3]
6	-21.14200211	0	0	-0.5529847741	0.5217553377	17.00935555	1.0
7	-21.14200211	0	0	-0.5274609923	0.5863692164	16.31700897	1.0
8	-21.14200211	0	0	-0.5030684471	0.6503384709	15.63487053	1.0
[RightHandPinky4]
6	-19.75699997	0	0	0	0	0	1.0
7	-19.75699997	0	0	0	0	0	1.0
8	-19.75699997	0	0	0	0	0	1.0
[RightHandRing1]
6	-91.03599548	-0.4390000105	-18.65100098	-5.007509708	-13.21057701	40.99047852	1.0
7	-91.03599548	-0.4390000105	-18.65100098	-5.022948265	-12.83850193	41.23550415	1.0
8	-91.03599548	-0.4390000105	-18.65100098	-5.099452019	-12.38869286	41.94452286	1.0
[RightHandRing2]
6	-31.54000092	0	0	-0.3185667992	-2.454677582	21.67554283	1.0
7	-31.54000092	0	0	-0.3057250679	-2.417997837	21.28336716	1.0
8	-31.54000092	0	0	-0.2946799695	-2.385782957	20.9395752	1.0
[RightHandRing3]
6	-29.37700081	0	0	-0.1133047864	0.212459594	16.56075668	1.0
7	-29.37700081	0	0	-0.1061278433	0.2503380179	16.1736927	1.0
8	-29.37700081	0	0	-0.1001133844	0.2832287848	15.8379488	1.0
[RightHandRing4]
6	-26.47500038	0	0	0	0	0	1.0
7	-26.47500038	0	0	0	0	0	1.0
8	-26.47500038	0	0	0	0	0	1.0
[RightHandMiddle1]
6	-95.32500458	0	0	-3.527447939	-7.29967165	31.64559174	1.0
7	-95.32500458	0	0	-3.604288578	-6.811079025	32.25834274	1.0
8	-95.32500458	0	0	-3.744651794	-6.298827648	33.33721924	1.0
[RightHandMiddle2]
6	-36.98199844	0	0	-0.568810761	-2.613539934	18.72257233	1.0
7	-36.98199844	0	0	-0.5450176597	-2.568306208	18.21791458	1.0
8	-36.98199844	0	0	-0.5279968977	-2.535320044	17.8513546	1.0
[RightHandMiddle3]
6	-29.50900078	0	0	-0.2768091559	-1.752702594	16.68395233	1.0
7	-29.50900078	0	0	-0.2616047859	-1.70462966	16.17687416	1.0
8	-29.50900078	0	0	-0.2508395314	-1.669677138	15.80920219	1.0
[RightHandMiddle4]
6	-28.3390007	0	0.0009999999311	0	0	0	1.0
7	-28.3390007	0	0.0009999999311	0	0	0	1.0
8	-28.3390007	0	0.0009999999311	0	0	0	1.0
[RightHandIndex1]
6	-91.08300018	-5.167999744	22.60099792	-0.9943269491	-2.70055151	17.81412888	1.0
7	-91.08300018	-5.167999744	22.60099792	-1.197978854	-2.591482162	19.05874443	1.0
8	-91.08300018	-5.167999744	22.60099792	-1.463124037	-2.483389378	20.81277466	1.0
[RightHandIndex2]
6	-36.76399994	0	0	-0.2573988438	-1.932363391	11.55390835	1.0
7	-36.76399994	0	0	-0.2330987006	-1.86169827	10.8194809	1.0
8	-36.76399994	0	0	-0.2097858042	-1.791022897	10.0879364	1.0
[RightHandIndex3]
6	-28.83100128	0	0	-0.3028016984	-0.3961786032	16.30330276	1.0
7	-28.83100128	0	0	-0.2825177312	-0.325183332	15.56888676	1.0
8	-28.83100128	0	0	-0.2632548511	-0.2542822361	14.83836555	1.0
[RightHandIndex4]
6	-23.92700005	0	0	0	0	0	1.0
7	-23.92700005	0	0	0	0	0	1.0
8	-23.92700005	0	0	0	0	0	1.0
[RightHandThumb1]
6	-24.64799881	-15.72700024	26.82600021	8.366714478	-3.313269138	-1.9413625	1.0
7	-24.64799881	-15.72700024	26.82600021	8.072899818	-2.644264698	-1.611936808	1.0
8	-24.64799881	-15.72700024	26.82600021	7.805817604	-2.026371241	-1.311452389	1.0
[RightHandThumb2]
6	-32.29800034	-18.64699936	18.64699936	4.386985302	-21.38708496	-13.61493683	1.0
7	-32.29800034	-18.64699936	18.64699936	4.133528233	-20.61071396	-12.65491295	1.0
8	-32.29800034	-18.64699936	18.64699936	3.973444223	-20.01472664	-11.24279118	1.0
[RightHandThumb3]
6	-26.52600098	-15.31399918	15.31399918	4.158469677	-11.48905945	-0.2560964525	1.0
7	-26.52600098	-15.31399918	15.31399918	3.872950554	-12.0342989	-0.03599803895	1.0
8	-26.52600098	-15.31399918	15.31399918	3.644278765	-13.04986286	0.09246645868	1.0
[RightHandThumb4]
6	-19.54599953	-11.28499985	11.28499985	0	0	0	1.0
7	-19.54599953	-11.28499985	11.28499985	0	0	0	1.0
8	-19.54599953	-11.28499985	11.28499985	0	0	0	1.0
[LeftUpLeg]
6	82.07800293	-67.51699829	-15.99599934	-37.14248276	-0.4545620978	-4.025756836	1.0
7	82.07800293	-67.51699829	-15.99599934	-36.8976326	-1.117089987	-5.932866573	1.0
8	82.07800293	-67.51699829	-15.99599934	-34.37310028	-3.105684996	-9.12673378	1.0
[LeftLeg]
6	0	-443.7049866	2.845999956	17.34002876	3.2084167	4.383858681	1.0
7	0	-443.7049866	2.845999956	18.3048172	3.198978424	4.109367371	1.0
8	0	-443.7049866	2.845999956	22.49477005	3.571102858	4.77918148	1.0
[LeftFoot]
6	0	-444.2789917	-29.8219986	-11.28616714	7.903508186	-7.828647137	1.0
7	0	-444.2789917	-29.8219986	-7.562934875	6.337213516	-5.291802883	1.0
8	0	-444.2789917	-29.8219986	-0.7184280753	6.732634544	3.676183939	1.0
[LeftToeBase]
6	0	-87.28699493	107.1060028	-2.355571747	-9.787198906e-06	-4.785145848e-06	1.0
7	0	-87.28699493	107.1060028	-4.745194435	-7.296865988e-06	-1.428160613e-05	1.0
8	0	-87.28699493	107.1060028	-5.516278267	-3.759079618e-06	-2.544827339e-06	1.0
[RightUpLeg]
6	-82.07800293	-67.51699829	-15.99599934	18.6283474	-14.83498287	-0.996135056	1.0
7	-82.07800293	-67.51699829	-15.99599934	23.69458771	-14.39608192	-2.041903496	1.0
8	-82.07800293	-67.51699829	-15.99599934	21.04795647	-12.82541943	-3.112896681	1.0
[RightLeg]
6	0	-443.7049866	2.861999989	4.98868084	7.063576698	2.298604727	1.0
7	0	-443.7049866	2.861999989	3.996338844	7.113845348	-1.203951597	1.0
8	0	-443.7049866	2.861999989	17.08206558	7.243286133	-3.405589819	1.0
[RightFoot]
6	0	-444.2770081	-29.83799934	-14.85587978	3.724758863	-3.595625877	1.0
7	0	-444.2770081	-29.83799934	-5.779633045	3.844742775	-0.9030094743	1.0
8	0	-444.2770081	-29.83799934	4.724140167	0.9456340671	6.042026997	1.0
[RightToeBase]
6	0	-87.28699493	107.1060028	-14.47096157	-4.655794328e-06	-4.636203812e-06	1.0
7	0	-87.28699493	107.1060028	-22.95887184	-0.03951684758	-0.09943697602	1.0
8	0	-87.28699493	107.1060028	-31.30520248	-1.367892265	-3.355340242	1.0
[EndOfFile]
